<svg width="1126" height="788" viewBox="0 0 1126 788" fill="none" xmlns="http://www.w3.org/2000/svg">
<rect width="1126" height="788" fill="white"/>
<path d="M424 263.809H1126V612H424V263.809Z" fill="white"/>
<g opacity="0.504511">
<path fill-rule="evenodd" clip-rule="evenodd" d="M1073.98 515.119C1082.69 550.317 871.273 573.275 689.299 557.253C507.324 541.231 423.843 478.663 510.678 445.324C597.513 411.985 1065.26 479.921 1073.98 515.119Z" fill="#84A3D1"/>
</g>
<path opacity="0.2" fill-rule="evenodd" clip-rule="evenodd" d="M635.782 284.956C635.782 284.956 635.785 284.949 635.792 284.935C635.864 284.788 636.291 283.917 636.379 283.767C636.357 283.867 636.366 283.988 636.387 284.123C636.217 284.327 636.089 284.539 636.014 284.76C635.882 284.969 635.745 285.178 635.605 285.387C635.647 285.243 635.699 285.1 635.782 284.956ZM636.014 284.76C636.144 284.556 636.268 284.353 636.391 284.149C636.401 284.21 636.414 284.273 636.427 284.339L636.427 284.339C636.527 284.856 636.648 285.48 635.91 285.831C635.886 285.465 635.898 285.104 636.014 284.76ZM574.741 336.982C575.227 336.985 575.722 336.989 576.199 337.007C576.333 336.906 576.516 336.824 576.735 336.783C576.145 336.678 575.573 336.589 575.044 336.527C574.664 336.676 574.284 336.825 573.904 336.974C574.176 336.978 574.457 336.98 574.741 336.982ZM585.089 338.799C585.161 338.87 585.229 338.938 585.288 339.004C584.979 338.903 584.679 338.788 584.38 338.673L584.304 338.643C584.594 338.692 584.861 338.744 585.089 338.799ZM544.429 342.166C544.886 342.429 545.26 342.804 545.476 343.162C545.123 342.832 544.774 342.5 544.429 342.166ZM526.355 377.498C526.472 378.257 526.819 378.949 527.501 379.516C527 378.868 526.625 378.192 526.355 377.498Z" fill="#C1DEE2"/>
<path fill-rule="evenodd" clip-rule="evenodd" d="M638.341 327.012C641.984 331.825 644.776 346.175 641.854 348.222C640.688 349.039 637.809 348.944 634.656 347.815L639.593 362.209L629.532 365.552L628.665 344.365C626.125 342.193 624.073 339.179 623.456 335.242C621.679 323.899 634.697 322.2 638.341 327.012Z" fill="#B28B67"/>
<path fill-rule="evenodd" clip-rule="evenodd" d="M639.836 329.22C639.579 328.525 639.16 327.797 638.815 327.173C638.37 326.369 637.813 325.695 637.228 325.08C636.126 323.923 634.896 322.956 633.614 322.24C631.271 320.933 628.582 320.624 626.255 321.787C625.08 322.375 624.025 323.342 623.228 324.632C622.508 325.798 621.911 327.361 620.757 327.843C619.501 328.367 618.027 327.356 616.816 326.832C615.45 326.242 614.067 325.94 612.657 326.112C610.295 326.402 608.375 328.056 607.314 330.877C606.185 333.879 605.756 337.874 607.547 340.76C607.88 341.296 608.251 341.719 608.716 342.016C609.142 342.289 609.755 342.527 610.028 343.099C610.317 343.707 610.059 344.701 610.016 345.35C609.955 346.281 609.946 347.239 610.217 348.139C610.662 349.616 611.743 350.808 612.769 351.535C613.813 352.275 614.954 352.519 616.096 352.427C616.859 352.365 617.62 352.218 618.341 351.907C618.699 351.752 618.995 351.519 619.327 351.301C619.65 351.089 619.867 351.139 620.21 351.276C621.801 351.914 623.351 351.85 624.882 351.168C626.175 350.592 627.613 349.689 628.448 348.206C629.376 346.56 628.98 344.846 628.301 343.1C628.639 343.185 629.489 343.024 628.838 342.456C628.579 342.231 628.185 342.236 627.897 342.149C627.562 342.047 627.21 341.889 626.913 341.641C625.714 340.637 626.064 337.668 627.121 336.847C628.69 335.628 629.722 338.503 631.111 338.874C631.91 339.087 632.512 338.233 632.904 337.435C633.428 336.366 633.669 335.1 633.84 333.837C633.982 332.797 634.096 331.751 634.245 330.713C634.315 330.229 634.614 328.824 634.226 328.431C635.386 327.721 636.887 327.899 638.121 328.378C638.632 328.575 639.046 328.842 639.409 329.37C639.487 329.483 639.679 329.832 639.818 329.803C640.078 329.748 639.9 329.395 639.836 329.22" fill="#191847"/>
<path fill-rule="evenodd" clip-rule="evenodd" d="M618.447 461.555C618.447 461.555 634.064 466.976 645.394 466.976C656.725 466.976 666.443 458.627 666.443 458.627C666.443 458.627 651.161 453.063 641.272 453.063C631.382 453.063 618.447 461.555 618.447 461.555Z" fill="#5E8C5D"/>
<path fill-rule="evenodd" clip-rule="evenodd" d="M654.407 472.185C654.307 471.998 654.222 471.794 654.155 471.573C652.763 467.006 630.472 417.731 628.252 408.723H653.348C655.036 415.572 662.636 458.556 663.705 467.131C667.079 480.659 674.027 524.469 674.914 527.504C675.847 530.697 670.597 534.023 669.198 530.098C666.972 523.853 661.668 506.571 659.307 496.019C657.093 486.126 655.29 477.227 654.407 472.185Z" fill="#784931"/>
<path fill-rule="evenodd" clip-rule="evenodd" d="M633.875 478.201C623.684 481.398 586.408 487.177 583.85 488.083C581.219 489.015 578.911 482.284 582.164 480.826C587.339 478.506 601.6 473.145 610.246 470.957C617.201 469.197 623.547 467.761 627.807 466.921C627.446 452.067 625.796 416.421 626.878 408.723H649.083C648.046 416.105 639.279 469.973 637.65 475.365C637.133 477.29 635.59 478.141 633.875 478.201V478.201Z" fill="#915B3C"/>
<path fill-rule="evenodd" clip-rule="evenodd" d="M582.951 481.139C583.129 480.081 582.572 479.055 581.563 478.881C580.785 478.747 579.932 478.655 579.408 478.77C578.252 479.023 576.102 479.986 576.102 479.986C576.339 481.651 580.353 509.904 580.353 509.904C580.353 509.904 583.625 510.39 583.516 507.824C583.406 505.257 583.37 503.551 583.37 503.551L586.318 488.906C586.42 488.398 586.141 487.918 585.667 487.788L584.187 487.385C584.187 487.385 582.982 485.25 582.776 483.796C582.678 483.107 582.798 482.056 582.951 481.139Z" fill="#E4E4E4"/>
<path fill-rule="evenodd" clip-rule="evenodd" d="M670.233 529.665C669.018 529.194 667.557 529.691 667.246 530.957C667.044 531.778 666.877 532.628 666.877 533.201C666.877 534.657 667.268 537.453 667.268 537.453C668.63 537.453 691.746 537.453 691.746 537.453C691.746 537.453 692.7 533.538 690.645 533.226C688.589 532.913 687.229 532.662 687.229 532.662L676.498 526.725C675.95 526.422 675.262 526.69 675.065 527.284L674.543 528.856C674.543 528.856 672.64 529.958 671.45 529.958C671.109 529.958 670.677 529.837 670.233 529.665Z" fill="#E4E4E4"/>
<path fill-rule="evenodd" clip-rule="evenodd" d="M626.95 408.723C626.95 408.723 641.628 403.511 654.725 408.723C657.763 425.925 665.145 432.752 666.443 459.126C651.687 468.226 633.46 452.637 618.27 461.51C613.93 449.098 620.006 419.207 626.95 408.723Z" fill="#83C682"/>
<path fill-rule="evenodd" clip-rule="evenodd" d="M663.501 359.932L650.1 373.259L656.616 379.359L665.653 364.753C671.056 361.569 673.45 359.581 672.838 358.788C672.321 358.119 671.665 358.289 671.062 358.446C670.591 358.568 670.152 358.682 669.835 358.385C669.11 357.707 669.869 354.613 670.691 351.716C671.512 348.819 670.266 349.328 669.588 349.867C667.48 352.402 665.451 355.757 663.501 359.932ZM680.429 370.82L674.544 376.688L676.069 384.722C676.069 384.722 679.752 380.019 683.204 377.969C687.606 375.355 689.305 373.722 691.059 369.65C691.997 367.471 692.477 363.398 691.147 362.397C690.636 362.013 689.151 363.509 687.636 365.035C686.481 366.198 685.308 367.379 684.536 367.758C683.498 368.27 683.377 366.508 683.281 365.1C683.212 364.089 683.155 363.261 682.781 363.586C680.879 364.044 680.429 370.82 680.429 370.82Z" fill="#915B3C"/>
<path fill-rule="evenodd" clip-rule="evenodd" d="M642.556 372.592C647.742 371.388 654.478 368.511 661.043 361.07L665.089 368.472C660.883 375.868 654.446 382.596 648.145 383.748C643.179 384.656 639.599 377.791 642.556 372.592Z" fill="#832323"/>
<path fill-rule="evenodd" clip-rule="evenodd" d="M636.372 430.711C631.318 430.992 626.675 431.25 624.078 432.495C619.33 420.99 620.747 412.783 622.055 405.207C622.843 400.641 623.592 396.304 622.928 391.612C620.993 377.95 626.841 354.99 628.141 354.705L628.514 354.624L638.82 352.371L640 352.113C641.733 360.451 645.297 369.109 648.885 377.823C649.722 379.858 650.562 381.896 651.379 383.934C660.343 384.478 678.278 371.842 678.278 371.842C678.278 371.842 684.873 383.191 685.26 388.553C675.148 398.209 666.059 403.516 658.223 405.448C659.297 411.186 659.513 416.821 658.321 422.274C656.723 429.581 645.829 430.186 636.372 430.711Z" fill="#A22A2A"/>
<path fill-rule="evenodd" clip-rule="evenodd" d="M925.242 398.105L890.026 467.232L863.623 525.673H857.937L902.174 398.105L925.242 398.105Z" fill="#915B3C"/>
<path fill-rule="evenodd" clip-rule="evenodd" d="M864.523 522.94C865.699 522.466 867.113 522.964 867.441 524.189C867.685 525.097 867.896 526.068 867.896 526.705C867.896 528.211 867.469 531.098 867.469 531.098C865.982 531.098 840.738 531.098 840.738 531.098C840.738 531.098 839.696 527.054 841.941 526.731C844.186 526.409 845.671 526.149 845.671 526.149L857.516 519.949C858.056 519.666 858.721 519.928 858.923 520.503L859.525 522.216C859.525 522.216 861.603 523.355 862.902 523.355C863.349 523.355 863.94 523.176 864.523 522.94Z" fill="#E4E4E4"/>
<path fill-rule="evenodd" clip-rule="evenodd" d="M870.956 516.315L859.989 512.42C859.989 512.42 867.197 487.122 877.656 456.741C888.116 426.36 900.124 398.105 900.124 398.105H931.098C931.098 398.105 917.749 433.847 902.794 463.057C887.839 492.268 870.956 516.315 870.956 516.315Z" fill="#DD5B5B"/>
<path fill-rule="evenodd" clip-rule="evenodd" d="M927.557 398.105C930.88 422.396 937.291 453.432 937.896 454.39C938.299 455.028 952.819 460.741 981.456 471.528L980.227 477.416C946.078 471.631 928.085 467.142 926.247 463.951C923.489 459.164 909.721 421.344 904.389 398.105H927.557Z" fill="#915B3C"/>
<path fill-rule="evenodd" clip-rule="evenodd" d="M971.39 466.438L969.226 475.921C943.684 478.551 928.035 476.651 922.276 470.219C916.518 463.788 909.956 439.75 902.589 398.105H932.125C936.792 432.207 939.402 449.973 939.953 451.405C940.505 452.837 950.983 457.848 971.39 466.438Z" fill="#FF6B6B"/>
<path fill-rule="evenodd" clip-rule="evenodd" d="M979.451 471.249C979.26 470.167 979.848 469.105 980.895 468.93C981.763 468.785 982.733 468.681 983.321 468.803C984.583 469.064 986.931 470.06 986.931 470.06C986.673 471.779 982.289 500.968 982.289 500.968C982.289 500.968 978.716 501.471 978.835 498.819C978.955 496.167 978.994 494.405 978.994 494.405L975.774 479.273C975.664 478.754 975.959 478.256 976.453 478.129L978.102 477.703C978.102 477.703 979.417 475.498 979.643 473.995C979.75 473.284 979.619 472.196 979.451 471.249Z" fill="#E4E4E4"/>
<path fill-rule="evenodd" clip-rule="evenodd" d="M911.841 335.228C909.005 337.244 906.218 338.218 904.91 337.82C901.63 336.823 901.328 322.675 903.866 317.097C906.404 311.519 919.451 309.088 920.109 320.139C920.337 323.975 918.971 327.398 916.953 330.191L920.572 350.078H910.061L911.841 335.228Z" fill="#B28B67"/>
<path fill-rule="evenodd" clip-rule="evenodd" d="M911.315 321.36C910.406 319.764 909.533 318.546 908.398 317.839C903.777 317.925 903.236 316.948 903.236 313.656C903.982 313.026 906.615 311.966 909.565 311.668C911.069 311.16 912.851 311.255 914.568 312.102C916.688 312.811 918.482 314.338 919.275 317.197C922.143 323.033 919.966 329.108 917.033 331.183C916.252 330.092 915.57 329.035 914.962 328.023C915.451 327.461 915.754 326.675 915.754 325.807C915.754 324.095 914.577 322.708 913.126 322.708C913.019 322.708 912.914 322.716 912.811 322.73C912.746 324.87 912.477 332.108 911.771 334.623C910.939 337.587 906.082 338.315 904.388 338.315C902.925 338.315 902.975 336.681 903.011 335.511C903.016 335.342 903.021 335.183 903.021 335.04C903.021 334.741 903.351 334.741 903.724 334.742C904.208 334.743 904.764 334.745 904.764 334.09C904.764 333.376 903.927 332.829 903.179 332.339C902.712 332.033 902.279 331.75 902.105 331.463C901.556 330.557 901.371 329.334 902.199 329.334C902.652 329.334 903.273 329.642 904.021 330.012C905.149 330.571 906.564 331.273 908.122 331.273C910.695 331.273 911.307 321.484 911.315 321.36Z" fill="#191847"/>
<path fill-rule="evenodd" clip-rule="evenodd" d="M959.956 412.124C958.268 409.365 947.958 379.853 947.958 379.853L940.527 381.334C940.527 381.334 953.845 412.619 954.789 414.42C956.014 416.761 955.171 420.669 954.599 423.32C954.51 423.73 954.428 424.11 954.361 424.449C955.806 424.913 956.308 423.917 956.837 422.866C957.436 421.68 958.068 420.424 960.133 421.127C960.93 421.398 961.7 421.752 962.452 422.098C965.051 423.294 967.438 424.392 970.018 421.639C970.427 421.203 970.73 419.799 969.343 419.016C965.886 417.067 960.781 413.472 959.956 412.124ZM874.887 396.765L888.163 385.157L891.227 394.047L878.023 400.425C874.328 405.669 872.253 407.845 871.798 406.952C871.415 406.2 871.7 405.508 871.963 404.87C872.167 404.374 872.358 403.91 872.209 403.477C871.868 402.488 869.346 402.542 866.958 402.717C864.57 402.893 865.252 401.624 865.822 401.002C868.242 399.289 871.264 397.877 874.887 396.765Z" fill="#B28B67"/>
<path fill-rule="evenodd" clip-rule="evenodd" d="M912.198 341.843L916.653 344.108C916.606 345.551 916.611 347.603 916.616 349.954C916.633 357.333 916.657 367.656 915.119 371.32C909.793 384.013 898.855 390.624 886.673 397.988C885.04 398.975 883.385 399.975 881.718 401.006L878.366 392.522C878.753 392.181 879.138 391.838 879.519 391.494C878.992 391.265 878.553 390.749 878.361 390.042C878.03 388.826 878.558 387.508 879.539 387.098C881.532 386.265 883.392 385.914 885.101 386.066C897.585 373.025 905.989 357.757 912.198 341.843Z" fill="#E7EAEB"/>
<path fill-rule="evenodd" clip-rule="evenodd" d="M932.301 399.612C932.301 399.612 912.659 402.288 901.38 399.612C900.449 399.392 900.49 394.413 900.922 393.053C907.649 371.877 912.075 356.375 912.075 341.667C913.927 342.866 918.556 342.027 918.556 342.027C926.851 357.184 930.663 374.575 932.301 399.612Z" fill="#191847"/>
<path fill-rule="evenodd" clip-rule="evenodd" d="M956.958 399.869C945.383 358.852 921.644 340.788 921.644 340.788L919.394 340.788L916.907 340.788C917.443 349.586 914.922 362.388 911.998 377.239C907.32 400.99 901.611 429.982 905.727 456.216C910.787 457.617 916.733 456.66 923.17 455.625C932.46 454.13 942.773 452.471 952.922 457.498C952.53 446.989 947.581 435.356 942.655 423.775C939.541 416.456 936.436 409.158 934.497 402.177C934.947 401.733 935.194 401.088 935.102 400.436L934.766 398.075C934.646 397.23 933.991 396.636 933.198 396.57C933.06 395.802 932.94 395.038 932.842 394.28C932.333 390.377 932.658 386.519 932.979 382.705C933.155 380.611 933.33 378.53 933.366 376.461C938.944 382.623 945.697 393.366 951.395 411.987L959.262 409.117C958.961 407.731 958.646 406.368 958.317 405.028C959.228 404.406 960.301 401.451 959.534 400.959C958.724 400.438 957.864 400.076 956.958 399.869Z" fill="#E7EAEB"/>
<path fill-rule="evenodd" clip-rule="evenodd" d="M920.178 341.304L922.327 349.498L918 355.64L921.91 360.466L912.449 380.552L924.019 360.506L920.178 355.64L924.019 350.212L920.178 341.304Z" fill="black" fill-opacity="0.1"/>
<path fill-rule="evenodd" clip-rule="evenodd" d="M915.224 388.298C914.304 388.298 913.558 387.373 913.558 386.232C913.558 385.092 914.304 384.167 915.224 384.167C916.144 384.167 916.89 385.092 916.89 386.232C916.89 387.373 916.144 388.298 915.224 388.298ZM913.141 400.176C912.221 400.176 911.475 399.251 911.475 398.11C911.475 396.969 912.221 396.044 913.141 396.044C914.062 396.044 914.808 396.969 914.808 398.11C914.808 399.251 914.062 400.176 913.141 400.176ZM911.059 409.987C911.059 411.128 911.805 412.053 912.725 412.053C913.645 412.053 914.391 411.128 914.391 409.987C914.391 408.847 913.645 407.922 912.725 407.922C911.805 407.922 911.059 408.847 911.059 409.987Z" fill="black" fill-opacity="0.4"/>
<path fill-rule="evenodd" clip-rule="evenodd" d="M820.351 357.582C817.654 359.598 815.003 360.572 813.759 360.174C810.64 359.178 810.353 345.029 812.767 339.451C815.18 333.873 827.589 331.442 828.214 342.493C828.431 346.329 827.132 349.752 825.213 352.545L828.654 372.432H818.658L820.351 357.582Z" fill="#B28B67"/>
<path fill-rule="evenodd" clip-rule="evenodd" d="M816.715 333.376C818.081 332.86 820.064 332.684 820.898 332.803C820.424 331.393 820.236 329.823 820.389 328.294C820.538 326.808 821.074 325.543 821.569 324.218C821.797 323.607 822.056 322.999 822.442 322.532C822.835 322.055 823.332 321.741 823.853 321.591C824.387 321.438 824.945 321.45 825.48 321.59C825.716 321.651 825.928 321.785 826.16 321.86C826.398 321.936 826.513 321.752 826.685 321.567C827.101 321.12 827.71 320.9 828.235 320.821C828.825 320.733 829.437 320.843 829.999 321.084C830.547 321.317 831.072 321.697 831.468 322.251C831.644 322.497 831.804 322.778 831.908 323.087C831.951 323.214 831.958 323.29 832.06 323.336C832.155 323.379 832.265 323.38 832.363 323.421C833.307 323.818 834.114 324.722 834.553 325.883C834.809 326.56 834.931 327.752 834.897 329.089C834.864 330.425 833.891 333.912 832.981 335.184C832.168 336.319 830.974 337.069 829.821 337.396C830.586 338.481 831.095 339.836 831.472 341.213C831.881 342.71 832.134 344.265 832.228 345.85C832.317 347.356 832.325 348.948 832.04 350.421C831.774 351.799 831.204 352.929 830.253 353.646C829.818 353.975 829.349 354.222 828.878 354.447C828.414 354.669 827.948 354.886 827.461 355.01C826.541 355.246 825.48 355.206 824.77 354.297C824.515 353.97 824.234 353.558 824.047 353.158C823.98 353.014 823.94 352.92 824.021 352.779C824.119 352.611 824.276 352.481 824.402 352.35C825.117 351.598 825.559 350.595 825.671 349.403C825.784 348.193 825.522 346.632 824.574 346.104C823.403 345.452 822.113 346.2 821.073 346.898C820.63 344.962 819.722 343.22 818.298 342.332C816.723 341.35 814.916 341.235 813.297 340.392C812.875 340.172 812.445 339.923 812.135 339.476C812.005 339.289 811.853 339.046 811.801 338.799C811.733 338.474 811.902 338.202 812.032 337.948C812.725 336.605 815.349 333.892 816.715 333.376Z" fill="#191847"/>
<path fill-rule="evenodd" clip-rule="evenodd" d="M832.82 505.151C815.107 505.151 800.747 488.157 800.747 467.194C800.747 446.232 815.107 429.238 832.82 429.238C850.532 429.238 864.892 446.232 864.892 467.194C864.892 488.157 850.532 505.151 832.82 505.151Z" fill="#9C69AE"/>
<path fill-rule="evenodd" clip-rule="evenodd" d="M782.958 465.17C781.408 471.898 777.549 484.65 772.212 499.294L767.141 497.46C771.578 463.761 775.27 441.451 777.385 434.661C778.782 430.175 789.354 430.7 788.138 439.728C787.628 443.513 785.61 453.65 782.958 465.17ZM803.802 441.302C812.072 443.426 829.219 450.936 834.116 453.335C837.193 454.844 835.209 459.958 832.584 459.511C832.139 459.435 830.567 459.217 828.22 458.891C820.682 457.846 805.158 455.693 793.384 453.592C787.185 452.485 790.52 438.088 796.956 439.612C799.122 440.124 801.425 440.691 803.802 441.302Z" fill="#B28B67"/>
<path fill-rule="evenodd" clip-rule="evenodd" d="M777.061 430.858C777.906 427.437 816.341 415.295 816.341 415.295H819.491V418.934L793.006 435.65C793.041 436.189 793.019 436.759 792.934 437.361C793.125 449.753 788.847 459.01 784.612 468.176C781.842 474.17 779.091 480.125 777.619 486.891L767.889 485.091C768.172 484.192 768.62 480.14 769.233 474.599C770.778 460.628 773.37 437.195 777.006 430.995C777.019 430.974 777.032 430.952 777.045 430.931C777.049 430.907 777.055 430.882 777.061 430.858Z" fill="#1F28CF"/>
<path fill-rule="evenodd" clip-rule="evenodd" d="M817.29 445.577C819.714 444.976 821.945 444.439 823.855 444.024C836.19 441.342 839.786 433.155 837.66 415.295H814.933C811.221 416.617 791.928 426.648 781.918 431.983C775.293 435.514 777.381 448.244 781.133 451.557C781.154 451.76 781.221 451.898 781.341 451.96C795.566 459.27 807.696 458.724 815.485 458.374C818.748 458.227 821.249 458.115 822.823 458.628L825.29 448.98L817.29 445.577Z" fill="#2B44FF"/>
<path fill-rule="evenodd" clip-rule="evenodd" d="M831.469 453.79C831.55 452.646 832.347 451.771 833.363 451.957C834.075 452.088 834.823 452.278 835.258 452.541C836.271 453.153 838.049 454.746 838.049 454.746C837.476 456.203 827.75 480.925 827.75 480.925C827.75 480.925 824.628 480.3 825.276 477.97C825.924 475.64 826.321 474.081 826.321 474.081L826.72 459.723C826.735 459.168 827.128 458.766 827.617 458.804L829.013 458.913C829.013 458.913 830.579 457.341 831.08 456.068C831.297 455.516 831.411 454.624 831.469 453.79Z" fill="#E4E4E4"/>
<path fill-rule="evenodd" clip-rule="evenodd" d="M772.023 496.687C773.244 496.235 774.705 496.724 775.011 497.99C775.193 498.746 775.34 499.515 775.34 500.041C775.34 501.438 774.964 504.118 774.964 504.118C773.657 504.118 751.472 504.118 751.472 504.118C751.472 504.118 750.556 500.364 752.529 500.065C754.502 499.766 755.807 499.524 755.807 499.524L766.065 493.855C766.612 493.552 767.3 493.821 767.497 494.415L767.983 495.875C767.983 495.875 769.809 496.932 770.951 496.932C771.254 496.932 771.631 496.833 772.023 496.687Z" fill="#E4E4E4"/>
<path fill-rule="evenodd" clip-rule="evenodd" d="M866.303 432.406C864.616 429.647 854.314 400.139 854.314 400.139L846.885 401.617C846.885 401.617 860.194 432.899 861.136 434.7C862.361 437.04 861.517 440.948 860.944 443.597C860.856 444.007 860.774 444.387 860.707 444.726C862.151 445.191 862.653 444.195 863.183 443.145C863.781 441.959 864.414 440.704 866.477 441.407C867.274 441.679 868.044 442.033 868.796 442.379C871.394 443.576 873.78 444.674 876.36 441.923C876.769 441.487 877.072 440.084 875.685 439.301C872.23 437.351 867.127 433.755 866.303 432.406ZM781.238 417.046L794.513 405.449L797.575 414.336L784.372 420.707C780.676 425.947 778.601 428.121 778.147 427.228C777.764 426.476 778.049 425.784 778.312 425.147C778.516 424.651 778.707 424.188 778.558 423.755C778.217 422.766 775.696 422.819 773.309 422.993C770.921 423.167 771.603 421.9 772.173 421.278C774.593 419.567 777.615 418.156 781.238 417.046Z" fill="#B28B67"/>
<path fill-rule="evenodd" clip-rule="evenodd" d="M818.548 362.125L823.003 364.391C822.956 365.833 822.961 367.885 822.966 370.236C822.982 377.615 823.006 387.939 821.468 391.602C816.141 404.296 805.203 410.908 793.021 418.272C791.388 419.259 789.733 420.259 788.065 421.29L784.714 412.806C785.102 412.465 785.487 412.122 785.868 411.777C785.342 411.548 784.902 411.032 784.71 410.325C784.38 409.109 784.907 407.791 785.888 407.381C787.882 406.548 789.741 406.197 791.451 406.349C803.934 393.307 812.338 378.04 818.548 362.125Z" fill="#E7EAEB"/>
<path fill-rule="evenodd" clip-rule="evenodd" d="M838.651 419.896C838.651 419.896 819.009 422.571 807.73 419.896C806.799 419.675 806.84 414.696 807.272 413.336C813.999 392.16 818.425 376.659 818.425 361.95C820.276 363.15 824.906 362.31 824.906 362.31C833.2 377.467 837.013 394.858 838.651 419.896Z" fill="#D15F96"/>
<path fill-rule="evenodd" clip-rule="evenodd" d="M863.562 420.152C851.987 379.135 828.248 361.071 828.248 361.071H827.6H825.998H823.511C824.048 369.869 821.527 382.671 818.602 397.522L818.602 397.522C813.925 421.273 808.215 450.266 812.331 476.499C817.391 477.9 823.337 476.944 829.774 475.908C839.064 474.413 849.377 472.754 859.526 477.781C859.135 467.272 854.186 455.639 849.259 444.058C846.145 436.739 843.041 429.441 841.101 422.46C841.552 422.017 841.799 421.371 841.706 420.72L841.37 418.358C841.25 417.513 840.595 416.919 839.802 416.854C839.664 416.085 839.545 415.321 839.446 414.563C838.937 410.66 839.262 406.802 839.583 402.988C839.759 400.894 839.934 398.813 839.97 396.745C845.548 402.906 852.301 413.649 857.999 432.27L865.866 429.4C865.565 428.014 865.25 426.651 864.921 425.311C865.832 424.689 866.905 421.734 866.139 421.242C865.328 420.721 864.468 420.359 863.562 420.152Z" fill="#E7EAEB"/>
<path fill-rule="evenodd" clip-rule="evenodd" d="M826.528 361.588L828.677 369.781L824.349 375.923L828.26 380.749L818.799 400.835L830.369 380.79L826.528 375.923L830.369 370.495L826.528 361.588Z" fill="black" fill-opacity="0.1"/>
<path fill-rule="evenodd" clip-rule="evenodd" d="M821.574 408.581C820.654 408.581 819.908 407.656 819.908 406.516C819.908 405.375 820.654 404.45 821.574 404.45C822.494 404.45 823.24 405.375 823.24 406.516C823.24 407.656 822.494 408.581 821.574 408.581ZM819.491 420.459C818.571 420.459 817.825 419.534 817.825 418.393C817.825 417.252 818.571 416.327 819.491 416.327C820.411 416.327 821.157 417.252 821.157 418.393C821.157 419.534 820.411 420.459 819.491 420.459ZM817.408 430.271C817.408 431.411 818.154 432.336 819.075 432.336C819.995 432.336 820.741 431.411 820.741 430.271C820.741 429.13 819.995 428.205 819.075 428.205C818.154 428.205 817.408 429.13 817.408 430.271Z" fill="black" fill-opacity="0.4"/>
<g filter="url(#filter0_i)">
<path fill-rule="evenodd" clip-rule="evenodd" d="M691.628 350.727C691.628 350.73 691.627 350.733 691.627 350.736C691.627 350.733 691.627 350.723 691.628 350.727" fill="#784931"/>
<path fill-rule="evenodd" clip-rule="evenodd" d="M691.627 350.732C691.627 350.732 691.627 350.733 691.627 350.734C691.626 350.732 691.628 350.723 691.627 350.732" fill="#784931"/>
<path fill-rule="evenodd" clip-rule="evenodd" d="M691.632 350.685C691.631 350.696 691.63 350.707 691.628 350.718C691.629 350.712 691.63 350.708 691.63 350.702C691.615 350.845 691.624 350.752 691.632 350.685" fill="#784931"/>
<path fill-rule="evenodd" clip-rule="evenodd" d="M691.629 350.718C691.629 350.723 691.628 350.729 691.627 350.734C691.621 350.765 691.629 350.718 691.629 350.718" fill="#784931"/>
<path fill-rule="evenodd" clip-rule="evenodd" d="M691.627 350.732C691.627 350.731 691.627 350.731 691.627 350.731C691.627 350.731 691.627 350.731 691.627 350.732" fill="#784931"/>
<path fill-rule="evenodd" clip-rule="evenodd" d="M691.626 350.736C691.625 350.743 691.632 350.709 691.626 350.736Z" fill="#784931"/>
<path fill-rule="evenodd" clip-rule="evenodd" d="M691.627 350.732L691.627 350.731C691.627 350.731 691.627 350.732 691.627 350.732" fill="#784931"/>
<rect width="42.3017" height="33.7329" rx="4" transform="matrix(0.955394 -0.295335 0.197152 0.980373 665.898 330.053)" fill="#784931"/>
<path fill-rule="evenodd" clip-rule="evenodd" d="M683.114 334.99L676.195 362.143L699.506 354.937L683.114 334.99Z" fill="#784931"/>
<path fill-rule="evenodd" clip-rule="evenodd" d="M696.401 337.583L689.564 358.011L710.173 351.64L696.401 337.583Z" fill="#784931"/>
<path fill-rule="evenodd" clip-rule="evenodd" d="M700.857 336.45C702.978 335.795 704.268 333.132 703.739 330.503C703.211 327.874 701.063 326.275 698.943 326.93C696.822 327.586 695.532 330.248 696.061 332.877C696.589 335.506 698.737 337.106 700.857 336.45Z" fill="#784931"/>
</g>
<rect x="563.754" y="214.292" width="24.2348" height="25.1515" fill="#E66965"/>
<rect x="630.893" y="262.03" width="24.2348" height="24.7878" fill="#556CA8"/>
<rect x="810.14" y="211.148" width="24.2348" height="24.3655" fill="#FF9B21"/>
<rect x="703.389" y="223.304" width="24.2348" height="24.7878" fill="#8AC58D"/>
<rect x="777.429" y="286.845" width="24.2348" height="25.1515" fill="#E56965"/>
<rect opacity="0.32" width="23.9707" height="23.4688" transform="matrix(0.779037 0.626978 -0.463838 0.88592 776.236 274.451)" fill="#E56965" fill-opacity="0.62"/>
<rect width="24.0902" height="24.1285" transform="matrix(0.886767 0.462216 -0.321129 0.947035 824.519 197)" fill="#FF9B21" fill-opacity="0.56"/>
<rect width="24.0344" height="23.6797" transform="matrix(0.838415 -0.545032 0.452833 0.891595 618.645 278.552)" fill="#556CA8" fill-opacity="0.56"/>
<rect x="870.685" y="251.218" width="24.2348" height="25.1515" fill="#8AC58D"/>
<rect width="24.0612" height="25.2376" transform="matrix(0.862045 0.506832 -0.357243 0.934011 886.556 251.07)" fill="#8AC58D" fill-opacity="0.64"/>
<defs>
<filter id="filter0_i" x="666.605" y="318.566" width="45.6507" height="47.5769" filterUnits="userSpaceOnUse" color-interpolation-filters="sRGB">
<feFlood flood-opacity="0" result="BackgroundImageFix"/>
<feBlend mode="normal" in="SourceGraphic" in2="BackgroundImageFix" result="shape"/>
<feColorMatrix in="SourceAlpha" type="matrix" values="0 0 0 0 0 0 0 0 0 0 0 0 0 0 0 0 0 0 127 0" result="hardAlpha"/>
<feOffset dy="4"/>
<feGaussianBlur stdDeviation="2"/>
<feComposite in2="hardAlpha" operator="arithmetic" k2="-1" k3="1"/>
<feColorMatrix type="matrix" values="0 0 0 0 0 0 0 0 0 0 0 0 0 0 0 0 0 0 0.25 0"/>
<feBlend mode="normal" in2="shape" result="effect1_innerShadow"/>
</filter>
</defs>
</svg>
